HIERARCHY
ROOT HipCenter
{
    OFFSET 0.0 0.0 -0.0
    CHANNELS 6 Xposition Yposition Zposition Zrotation Xrotation Yrotation
    JOINT Spine
    {
        OFFSET 0.0 0.11779526621103287 0.0
        CHANNELS 3 Zrotation Xrotation Yrotation
        JOINT ShoulderCenter
        {
            OFFSET 0.0 0.31349286437034607 0.0
            CHANNELS 3 Zrotation Xrotation Yrotation
            JOINT LeftShoulder
            {
                OFFSET 0.16889092326164246 0.0 0.0
                CHANNELS 3 Zrotation Xrotation Yrotation
                JOINT LeftElbow
                {
                    OFFSET 0.24578014016151428 0.0 0.0
                    CHANNELS 3 Zrotation Xrotation Yrotation
                    JOINT LeftWrist
                    {
                        OFFSET 0.2672896087169647 0.0 0.0
                        CHANNELS 3 Zrotation Xrotation Yrotation
                        JOINT LeftHand
                        {
                            OFFSET 0.03281053900718689 0.0 0.0
                            CHANNELS 3 Zrotation Xrotation Yrotation
                            End Site
                            {
                                OFFSET 0.013124216347932816 0.0 0.0
                            }
                        }
                    }
                }
            }
            JOINT RightShoulder
            {
                OFFSET -0.16889092326164246 0.0 0.0
                CHANNELS 3 Zrotation Xrotation Yrotation
                JOINT RightElbow
                {
                    OFFSET -0.24578014016151428 0.0 0.0
                    CHANNELS 3 Zrotation Xrotation Yrotation
                    JOINT RightWrist
                    {
                        OFFSET -0.2672896087169647 0.0 0.0
                        CHANNELS 3 Zrotation Xrotation Yrotation
                        JOINT RightHand
                        {
                            OFFSET -0.03281053900718689 0.0 0.0
                            CHANNELS 3 Zrotation Xrotation Yrotation
                            End Site
                            {
                                OFFSET -0.013124216347932816 0.0 0.0
                            }
                        }
                    }
                }
            }
            End Site
            {
                OFFSET 0.0 0.12539716064929962 0.0
            }
        }
    }
    JOINT LeftHip
    {
        OFFSET 0.1234336793422699 0.0 0.0
        CHANNELS 3 Zrotation Xrotation Yrotation
        JOINT LeftKnee
        {
            OFFSET 0.0 -0.3666197657585144 0.0
            CHANNELS 3 Zrotation Xrotation Yrotation
            JOINT LeftAnkle
            {
                OFFSET 0.0 -0.38123175501823425 0.0
                CHANNELS 3 Zrotation Xrotation Yrotation
                JOINT LeftFoot
                {
                    OFFSET 0.0 -0.11605203151702881 0.0
                    CHANNELS 3 Zrotation Xrotation Yrotation
                    End Site
                    {
                        OFFSET 0.0 0.0 0.04642081633210182
                    }
                }
            }
        }
    }
    JOINT RightHip
    {
        OFFSET -0.1234336793422699 0.0 0.0
        CHANNELS 3 Zrotation Xrotation Yrotation
        JOINT RightKnee
        {
            OFFSET 0.0 -0.3666197657585144 0.0
            CHANNELS 3 Zrotation Xrotation Yrotation
            JOINT RightAnkle
            {
                OFFSET 0.0 -0.38123175501823425 0.0
                CHANNELS 3 Zrotation Xrotation Yrotation
                JOINT RightFoot
                {
                    OFFSET 0.0 -0.11605203151702881 0.0
                    CHANNELS 3 Zrotation Xrotation Yrotation
                    End Site
                    {
                        OFFSET 0.0 0.0 0.04642081633210182
                    }
                }
            }
        }
    }
}
MOTION
Frames: 8
Frame Time: 0.03333333333333333
0.5590000152587891 -0.11299999803304672 0.703000009059906 -0.4939105605181188 12.161753647536676 7.679488738971174 2.231238399079737 -2.0544489518236646 0.06414314604709638 7.661336586524593e-08 3.1962366610288614e-07 -19.639074633500506 111.41986240847353 -20.119516025084856 -155.96519152705645 1.758820319578639e-07 3.468896555336744e-06 39.56746707865989 179.99999772177156 -33.57601431055856 -126.755584219271 -6.361109362927035e-15 0.0 0.0 -138.4796578406475 27.729891427961334 -152.50344121358214 -1.2333030320470246e-06 -1.0280341027753701e-05 -21.14550372222631 -1.8295385083092394e-07 8.476371867788686 -19.449003938978624 -3.9756933518293955e-16 3.1805546814635164e-15 1.1034765745125397e-32 3.6098170604290916 -34.2449571182482 11.886242572175071 11.331555784560935 42.176950775038684 -56.49123360094339 92.13253515321995 -49.28359377060882 142.60445057181838 4.413906298050159e-31 6.3611093629270335e-15 -7.951386703658792e-15 -1.3302209287170896 -28.72837486343674 -3.348856571404138 -7.852888475251584 39.63680078255425 51.376899532103714 -93.00841381073529 -32.828719496839696 -152.63951975790664 0.0 0.0 1.5902773407317582e-15
0.5590000152587891 -0.11999999731779099 0.6850000023841858 -0.5070224789470461 15.810784992973415 6.4740668686131375 2.1037507121471686 -1.9300877617608754 0.07391190355195547 -1.9181606830337442e-07 -5.26786680282403e-07 -19.133104712955063 112.10729043283787 -20.159164191216412 -154.65972037013486 1.7131007116114304e-06 2.3820631933988037e-06 40.62400493515916 -179.9999973888315 -33.1551037557609 -126.04942865388936 0.0 0.0 -1.590277340731758e-15 -139.00643202142004 29.011297572732282 -151.7917392283644 -5.782459178875156e-07 -7.003591616425062e-06 -21.176815449138335 -1.3635513676304672e-06 2.398944867272375 -20.53109453294538 7.951386703658794e-16 1.1034765745125397e-32 1.5902773407317588e-15 4.0745509530204576 -40.47745865446913 18.76334288680836 19.86261913567308 41.722012563021984 -67.04337894933872 92.65915567098978 -52.45045836198405 145.02898755333197 0.0 4.770832022195274e-15 0.0 -2.572640851889715 -36.051542182770454 -11.7315682078382 -15.110002915894274 41.18311152934793 61.780284262110406 -91.72724158162008 -36.429330886935375 -150.96508847439677 -6.3611093629270335e-15 -1.5902773407317584e-15 1.5902773407317584e-15
0.5580000281333923 -0.13199999928474426 0.6650000214576721 -1.0322314338286391 19.356074265114582 5.16404323455526 2.346235332184739 -1.0672199895945051 0.03399349129429625 3.0639138106570086e-07 1.7026121385218312e-06 -18.38919747012219 114.03736078245565 -20.629699561420416 -152.68239928507077 2.9777665243739983e-06 -2.9401056102556477e-07 41.54036102888296 179.9999951141958 -33.410368145375514 -125.44692059718417 -6.620859447075238e-32 -4.770832022195277e-15 -1.5902773407317588e-15 -138.23763425272318 29.2245187154604 -152.1507843948905 2.8449254248716706e-06 -6.875569156468266e-06 -21.52327921303509 -5.260798254844929e-06 -0.23628582441312723 -17.829992861023026 1.1927080055488188e-15 -3.1805546814635168e-15 3.310429723537619e-32 6.0714566229678315 -47.24087724969172 26.5541684169099 27.824954496173216 41.18859661205447 -76.4444738073891 94.50781132936025 -54.82656263672812 147.9176837071119 -3.1805546814635164e-15 2.2069531490250793e-31 -7.95138670365879e-15 -3.3329643752353566 -44.50364664073598 -22.61871654175116 -25.673492210650227 41.72484958589592 75.904717690505 -90.8071492330442 -40.06667107945511 -150.08836346884974 3.1805546814635168e-15 7.95138670365879e-15 -3.1805546814635168e-15
0.5580000281333923 -0.1469999998807907 0.6449999809265137 -0.5304944689582332 23.9615940228382 4.048621449508433 1.4522707259187417 -1.890915329684984 0.03196302106898055 -2.3005912985292655e-07 -4.853187788397626e-07 -18.544174256208542 114.61043570899353 -20.631085825104776 -152.21708259413074 5.716466311927452e-06 -3.6957457297204153e-06 42.535072399009955 179.9999990271704 -35.447639516783774 -125.88914241721514 2.2069531490250793e-32 -1.590277340731758e-15 1.590277340731758e-15 -137.433846688649 29.22338029913548 -151.93155386083816 5.815720090153991e-07 -1.7239814896571424e-06 -22.014335375699467 -5.402201744873149e-07 -3.7635694164783176 -19.60288418362629 -2.782985346280578e-15 -3.1805546814635176e-15 3.1805546814635176e-15 8.37633748770986 -55.577104309845126 36.39733308087593 35.02404396568461 41.14375740575168 -83.72094292500034 95.3161164940084 -56.93306372075441 148.66550847442377 3.1805546814635168e-15 -1.5902773407317582e-15 6.3611093629270335e-15 -5.823965205361149 -53.70359164648487 -33.924978841172035 -35.821514382822706 40.35379293012897 87.11678034044557 -90.7446738001501 -44.50924876483266 -149.84922088931756 -3.1805546814635168e-15 2.2069531490250793e-31 -7.951386703658792e-15
0.5590000152587891 -0.16099999845027924 0.625 -0.5562450017135612 28.100232848075542 3.376436529417843 1.6324425461485361 -2.3562001450758827 0.07906370653007454 5.104612832733341e-07 4.0492705408544717e-07 -18.721086692849198 114.91410734780499 -20.748338360498167 -151.58737274255543 4.252604611152379e-06 -2.206981520580939e-06 43.328381774109765 179.99999706705114 -36.23180654664222 -124.30016119186818 1.7655625192200634e-31 6.361109362927033e-15 -3.1805546814635164e-15 -137.34124637621153 30.15930796831867 -151.80867934024306 2.2223836058777157e-06 -1.3778069817480944e-06 -22.58126735756446 -3.481918170156872e-07 -5.8805853355308235 -18.718148331280712 -3.975693351829396e-16 -1.1034765745125397e-32 3.1805546814635168e-15 13.649768641435998 -63.91130645486819 50.22510212877159 43.9551068286922 40.132424688765035 -93.48273440178222 95.18780520717262 -57.23401903467417 149.51353507520622 0.0 0.0 0.0 -8.764665043858285 -61.95850876470836 -43.129159231539965 -42.54975624490844 39.833122384416605 92.12131759494973 -91.57378339613389 -48.07802124784896 -149.579834437866 0.0 0.0 -6.361109362927033e-15
0.5590000152587891 -0.18000000715255737 0.6039999723434448 -0.5729313843005002 32.61794707920195 2.6052293355901335 1.6358870579600324 -3.031763505044758 0.13882292939580423 8.869927760025907e-08 -1.488809546219207e-06 -18.980790583770233 115.99843968414089 -21.110244522049065 -150.24995326542518 2.483090858785715e-06 3.176786790730677e-07 42.765793266067696 179.9999969732901 -39.25913810095837 -126.7780979437434 -3.1805546814635168e-15 -3.1805546814635168e-15 3.1805546814635168e-15 -136.54871686721748 31.519733694754894 -152.14742465880366 2.4741593234431608e-06 9.93021238460147e-07 -22.42159822798045 -3.59127664893783e-06 -4.251044328633934 -19.12606771382323 3.1805546814635164e-15 7.951386703658791e-16 -2.2069531490250793e-32 27.625455313810537 -72.09192592192619 71.66459895649132 52.19393147977499 39.14705281163184 -102.06111317410655 95.46439169147958 -57.616463327265976 150.0457155549458 0.0 0.0 0.0 -14.093103244182432 -70.97848344593768 -53.126597863191506 -49.119027694478305 40.16275966834857 95.8824323253402 -91.87944141549379 -49.99730219624749 -148.70697594077387 -3.1805546814635168e-15 4.4139062980501586e-32 -1.5902773407317584e-15
0.5590000152587891 -0.20399999618530273 0.5860000252723694 -0.5968018076309284 35.705201579137025 1.1591076393193183 1.539542943497265 -2.491305005261595 0.11297856125537448 -1.6773370260612043e-08 7.460736133299417e-08 -18.587179112047362 116.13391000455773 -20.590547138368958 -149.53576744432408 8.64680356763741e-07 5.636573226495231e-07 41.82559205244843 179.99999988611958 -40.94848903499067 -126.24698589164385 3.1805546814635164e-15 0.0 0.0 -135.35247091466925 33.569981175882596 -152.2860674039026 -9.291290220440375e-08 -9.677771087825755e-07 -22.762182679482557 -2.7680125904352938e-06 -8.01026129817406 -19.26024653951408 0.0 0.0 0.0 56.4361574293602 -75.85941949220303 107.06049774015301 60.67281355054423 38.21247925586068 -110.41546792119235 96.65591997394903 -52.66607561457237 152.35457225140112 8.827812596100317e-32 -6.3611093629270335e-15 1.5902773407317584e-15 -25.669372784871616 -78.795080821852 -69.54014078101218 -56.80276006453337 40.298281922863396 99.68966939769193 -94.19623509821665 -51.185625971431854 -150.02602097753788 -3.1805546814635168e-15 8.827812596100317e-32 -3.1805546814635168e-15
0.5580000281333923 -0.2329999953508377 0.5699999928474426 -1.2453482053560543 39.18088194025938 -0.19795247206751257 1.9308207803529738 -3.300410907242386 0.1252022243021047 -6.489521229044145e-07 -2.267138683023298e-06 -18.05246904405457 115.91425308795546 -20.08368414235197 -149.70509195622537 7.764419245747969e-07 6.771106030474103e-06 40.238637843734885 179.99999755889763 -41.70279989651601 -127.13925552582732 3.1805546814635164e-15 -8.827812596100317e-32 -3.1805546814635164e-15 -133.80991151383816 33.58641506227518 -152.54436477610628 1.1923886200545991e-06 4.738296359414117e-06 -23.038752350565005 1.0921189181881617e-06 -14.386706945150129 -19.434557805914142 1.5902773407317582e-15 -7.95138670365879e-16 6.361109362927033e-15 92.77893850846093 -72.71129991698623 148.4133051914976 69.84241110200455 38.50294420401359 -120.19581055066938 94.36947212570846 -37.52297837059696 154.34573576232708 -6.3611093629270335e-15 -6.3611093629270335e-15 -3.531125038440127e-31 -79.53230202821852 -84.08781127587096 -128.93911740370635 -65.6509894816672 40.921242072777126 106.14278274480725 -93.60224541715613 -44.41101279977091 -150.9301773320688 6.3611093629270335e-15 2.648343778830095e-31 4.770832022195275e-15
